<?xml version="1.0" encoding="utf-8"?>
<!-- Generator: Adobe Illustrator 23.0.0, SVG Export Plug-In . SVG Version: 6.00 Build 0)  -->
<svg version="1.1" id="Capa_1" xmlns="http://www.w3.org/2000/svg" xmlns:xlink="http://www.w3.org/1999/xlink" x="0px" y="0px"
	 viewBox="0 0 426.6 426.6" style="enable-background:new 0 0 426.6 426.6;" xml:space="preserve">
<style type="text/css">
	.st0{fill:#FFFFFF;}
	.st1{fill:#111111;}
	.st2{fill:#111111;stroke:#000000;stroke-width:0.25;stroke-miterlimit:10;}
	.st3{fill:#111111;stroke:#000000;stroke-miterlimit:10;}
</style>
<circle class="st0" cx="213.8" cy="214.7" r="212.5"/>
<title>favicon_1</title>
<g>
	<g>
		<path class="st1" d="M131.5,357.4c-1.3,0-2.7,0-4.1-0.1c-47.3-3.1-96-42-90.9-120c3.2-49.1,33.9-93.8,86.5-125.8
			c44.3-27,99.2-41.9,143.4-39.1c80.3,5.2,129.3,53.7,124.8,123.5c-6.5,99.4-130.9,109.4-184,113.7c-3.3,0.3-6.4,0.5-9.2,0.8
			c-21.9,1.9-27.6,12.9-33.6,24.4C158.5,345.9,152.5,357.4,131.5,357.4z M255.7,77.8c-40.8,0-90.5,14.6-129.8,38.6
			c-50.9,31-80.7,74.1-83.7,121.3c-4.8,74.5,39.5,110.9,85.5,113.9l0,0c20.7,1.3,25.4-7.9,31.5-19.5c6.1-11.8,13.1-25.3,38.2-27.5
			c2.8-0.2,5.9-0.5,9.2-0.8c51.6-4.1,172.6-13.8,178.7-108.3c4.3-66.3-42.5-112.4-119.4-117.4C262.6,77.9,259.2,77.8,255.7,77.8z"/>
	</g>
</g>
<g>
	<g>
		<path class="st2" d="M154.1,320.5c-0.7,0-1.5,0-2.3-0.1c-18.5-0.9-36.4-9.4-48.9-23.4c-14.7-16.4-21.7-39.3-20.1-66.3
			c2.2-36.6,24.9-70,64-94c32.8-20.2,73.7-31.5,106.6-29.5c30,1.8,54.6,11.8,71.2,28.9c16,16.4,23.7,38.1,22.2,62.8
			c-4.5,73.6-91.3,81.6-133.1,85.5c-2.8,0.3-5.4,0.5-7.7,0.7c-17.3,1.8-21.8,9.9-26.5,18.6C174.9,311.9,170.2,320.5,154.1,320.5z
			 M246,112.1c-30.3,0-67.3,11-96.5,29c-37.6,23.1-59.4,55.1-61.5,90c-1.5,25.5,4.9,47.2,18.8,62.6c11.7,13,28.2,20.9,45.4,21.7
			c14.7,0.7,18.3-5.8,22.9-14.1c4.9-9,10.5-19.1,30.5-21.2c2.3-0.2,4.9-0.5,7.8-0.7c40.3-3.7,124.3-11.5,128.5-80.7
			c1.4-23.2-5.8-43.6-20.7-58.9c-15.7-16.1-39.2-25.6-67.9-27.3C250.8,112.1,248.4,112.1,246,112.1z"/>
	</g>
</g>
<g>
	<g>
		<path class="st3" d="M178.3,287.9c-0.2,0-0.4,0-0.6,0c-11.4-0.2-23.7-9.4-32-18.3c-6.9-7.4-13.8-23.6-12.6-45.3
			c2.7-50.5,66.1-80.7,106.8-78.5c37.8,2,61.1,24.6,59.3,57.5c-2.5,46.1-52.2,53.8-77.5,56.6c-2,0.2-3.8,0.4-5.4,0.6
			c-11.8,1.5-18,11.7-21.1,16.9C192,282.6,188.9,287.9,178.3,287.9z M235.5,149.7c-39.1,0-96,28.4-98.5,74.9
			c-1.1,20.3,5.2,35.6,11.6,42.4c7.6,8.1,18.8,16.8,29.2,17c8.6,0.1,10.9-3.5,13.9-8.5c3.3-5.5,10.2-17.1,24-18.8
			c1.6-0.2,3.5-0.4,5.5-0.6c24.2-2.7,71.7-10.1,74-52.9c1.6-30.5-20.2-51.4-55.5-53.3C238.3,149.7,236.9,149.7,235.5,149.7z"/>
	</g>
</g>
</svg>
