<?xml version="1.0" encoding="utf-8"?>
<!-- Generator: Adobe Illustrator 23.0.0, SVG Export Plug-In . SVG Version: 6.00 Build 0)  -->
<svg version="1.1" id="Capa_1" xmlns="http://www.w3.org/2000/svg" xmlns:xlink="http://www.w3.org/1999/xlink" x="0px" y="0px"
	 viewBox="0 0 24 16" style="enable-background:new 0 0 24 16;" xml:space="preserve">
<style type="text/css">
	.st0{fill:#333333;}
</style>
<title>menu-burger0</title>
<g>
	<g id="Outline">
		<path class="st0" d="M1,7h22c0.6,0,1,0.4,1,1l0,0c0,0.6-0.4,1-1,1H1C0.4,9,0,8.6,0,8l0,0C0,7.4,0.4,7,1,7z"/>
		<path class="st0" d="M1,0h22c0.6,0,1,0.4,1,1l0,0c0,0.6-0.4,1-1,1H1C0.4,2,0,1.6,0,1l0,0C0,0.4,0.4,0,1,0z"/>
		<path class="st0" d="M1,14h22c0.6,0,1,0.4,1,1l0,0c0,0.6-0.4,1-1,1H1c-0.6,0-1-0.4-1-1l0,0C0,14.4,0.4,14,1,14z"/>
	</g>
</g>
</svg>
