<svg xmlns="http://www.w3.org/2000/svg" viewBox="0 0 152.1 122.19"><defs><style>.cls-1{fill:#333;}</style></defs><title>logo-top</title><g id="Capa_2" data-name="Capa 2"><g id="Capa_2-2" data-name="Capa 2"><path class="cls-1" d="M40.84,122.19q-.84,0-1.77-.06C18.81,120.81-2,104.17.16,70.75c1.36-21,14.51-40.16,37-53.88C56.12,5.33,79.66-1.08,98.57.15,133,2.38,153.92,23.13,152,53c-2.77,42.57-56,46.84-78.78,48.67l-3.94.32c-9.39.84-11.81,5.51-14.37,10.45S49.85,122.19,40.84,122.19ZM94,2.47C76.57,2.47,55.28,8.73,38.46,19,16.66,32.27,3.93,50.71,2.62,70.9c-2.07,31.91,16.89,47.49,36.61,48.77h0c8.86.57,10.89-3.36,13.47-8.35S58.3,100.5,69,99.55c1.19-.11,2.52-.22,4-.33,22.11-1.77,73.88-5.93,76.51-46.37,1.85-28.38-18.21-48.1-51.1-50.24C97,2.52,95.51,2.47,94,2.47Z"/><path class="cls-1" d="M47.24,112.15l-1.11,0a34.15,34.15,0,0,1-23.6-11.29c-7.11-7.92-10.46-19-9.67-32,1.07-17.66,12-33.76,30.86-45.35C59.54,13.78,79.24,8.32,95.1,9.28c14.45.87,26.33,5.69,34.35,13.92,7.72,7.92,11.42,18.39,10.7,30.3C138,89,96.09,92.87,76,94.74l-3.72.35c-8.35.87-10.51,4.8-12.79,9C57.25,108,55,112.15,47.24,112.15ZM91.56,11.64C77,11.64,59.08,17,45,25.62,26.88,36.78,16.34,52.19,15.32,69c-.74,12.32,2.39,22.75,9.05,30.17a31.6,31.6,0,0,0,21.88,10.47c7.08.34,8.83-2.81,11-6.8,2.37-4.32,5.06-9.22,14.7-10.22,1.12-.12,2.37-.23,3.74-.36,19.46-1.8,59.94-5.54,62-38.93.68-11.19-2.78-21-10-28.43C120.1,17.14,108.78,12.58,95,11.74,93.85,11.68,92.71,11.64,91.56,11.64Z"/><path class="cls-1" d="M53.6,102.12h-.39A27.28,27.28,0,0,1,34,93.21C29.75,88.65,24.84,80.39,25.56,67c1.69-31.25,40.92-49.92,66.07-48.58C115,19.67,129.42,33.63,128.32,54c-1.54,28.52-34.1,32.1-49.76,33.82l-3.35.38c-7.33.91-9.32,4.24-11.24,7.47S60.1,102.12,53.6,102.12ZM89,20.81C64.75,20.81,29.58,38.38,28,67.12c-.68,12.54,3.85,20.2,7.76,24.41a24.78,24.78,0,0,0,17.46,8.12c5.35.08,6.74-2.14,8.6-5.27,2-3.38,4.52-7.59,13.05-8.65l3.39-.38c15-1.65,46.14-5.08,47.57-31.5,1-18.85-12.47-31.8-34.36-33C90.67,20.83,89.82,20.81,89,20.81Z"/><path class="cls-1" d="M59.88,92.12a20.78,20.78,0,0,1-14.37-6.48c-5-5.1-7.59-12.39-7.24-20.52,1-23.83,30.66-38.42,49.89-37.58,17.61.76,29,11.58,28.33,26.92C115.56,76.12,92.19,79.33,81,80.88q-1.52.2-2.76.39c-6.36,1-8.07,3.53-9.72,6S65.29,92,60.3,92.11ZM86.55,30C68.34,30,41.67,43.48,40.73,65.23c-.41,9.54,3.33,15.42,6.53,18.68,3.66,3.71,8.53,5.87,13,5.74h0c3.72-.1,4.7-1.56,6.19-3.77,1.77-2.63,4-5.9,11.4-7,.83-.13,1.77-.26,2.8-.4C92,76.87,113.19,74,114,54.35c.61-14.08-9.59-23.64-26-24.35C87.56,30,87.06,30,86.55,30Z"/><path class="cls-1" d="M65.88,83.35a12.56,12.56,0,0,1-8.27-3.29C53.3,76.32,50.82,70,51,63.27c.36-16.43,20.49-26.86,33.71-26.6,12.18.27,20.22,7.6,20,18.26-.33,15-13.49,17.55-20.55,18.89l-1.74.34c-5.54,1.15-7.36,3.34-9,5.28-1.33,1.61-2.7,3.28-5.73,3.77h0A12.26,12.26,0,0,1,65.88,83.35ZM84.12,39.13c-12.2,0-30.36,9.45-30.68,24.19-.13,6.05,2,11.62,5.79,14.88a9.83,9.83,0,0,0,8.06,2.57h0c2.12-.34,3-1.41,4.23-2.9,1.77-2.14,4-4.81,10.37-6.13l1.76-.34c7.28-1.39,18.27-3.48,18.55-16.53.2-9.32-6.7-15.5-17.58-15.73Z"/></g></g></svg>